<svg xmlns="http://www.w3.org/2000/svg" xmlns:xlink="http://www.w3.org/1999/xlink" width="500" zoomAndPan="magnify" viewBox="0 0 375 374.999991" height="500" preserveAspectRatio="xMidYMid meet" version="1.0"><defs><g/><clipPath id="4bf12f2e45"><path d="M 63.847656 179.730469 L 102.847656 179.730469 L 102.847656 225.480469 L 63.847656 225.480469 Z M 63.847656 179.730469 " clip-rule="nonzero"/></clipPath><clipPath id="0a2b553906"><path d="M 85 196 L 102 196 L 102 225.480469 L 85 225.480469 Z M 85 196 " clip-rule="nonzero"/></clipPath></defs><g clip-path="url(#4bf12f2e45)"><path fill="#4da9e3" d="M 102.847656 189.183594 C 102.847656 189.054688 102.839844 188.910156 102.832031 188.773438 C 102.828125 188.636719 102.824219 188.496094 102.804688 188.371094 C 102.789062 188.242188 102.773438 188.113281 102.757812 187.988281 L 102.742188 187.890625 L 102.726562 187.796875 L 102.6875 187.609375 C 102.660156 187.484375 102.640625 187.355469 102.609375 187.234375 C 102.574219 187.113281 102.542969 186.988281 102.507812 186.867188 C 102.488281 186.808594 102.476562 186.746094 102.453125 186.6875 L 102.390625 186.507812 C 102.347656 186.390625 102.308594 186.273438 102.265625 186.15625 C 102.214844 186.042969 102.164062 185.929688 102.113281 185.816406 L 102.039062 185.648438 C 102.011719 185.59375 101.980469 185.539062 101.953125 185.484375 C 101.503906 184.613281 100.921875 183.847656 100.265625 183.214844 C 99.933594 182.902344 99.59375 182.605469 99.230469 182.351562 C 99.144531 182.289062 99.054688 182.222656 98.964844 182.160156 C 98.871094 182.101562 98.78125 182.042969 98.6875 181.988281 L 98.550781 181.902344 L 98.484375 181.859375 L 98.433594 181.828125 L 98.402344 181.808594 C 98.316406 181.761719 98.230469 181.714844 98.144531 181.667969 C 96.683594 180.867188 95.195312 180.371094 93.773438 180.09375 C 92.351562 179.816406 90.996094 179.746094 89.761719 179.804688 C 89.140625 179.832031 88.550781 179.898438 87.992188 179.980469 C 87.855469 180.003906 87.714844 180.027344 87.582031 180.046875 C 87.445312 180.070312 87.3125 180.101562 87.179688 180.125 C 86.914062 180.175781 86.660156 180.242188 86.414062 180.300781 C 85.425781 180.550781 84.574219 180.863281 83.855469 181.183594 C 83.136719 181.503906 82.554688 181.832031 82.09375 182.113281 C 81.636719 182.402344 81.304688 182.644531 81.082031 182.8125 C 80.863281 182.980469 80.75 183.070312 80.75 183.070312 C 80.75 183.070312 80.875 182.996094 81.113281 182.855469 C 81.351562 182.71875 81.714844 182.527344 82.191406 182.296875 C 82.675781 182.074219 83.28125 181.824219 84.007812 181.59375 C 84.738281 181.363281 85.589844 181.148438 86.554688 181.003906 C 87.039062 180.9375 87.546875 180.882812 88.082031 180.851562 C 88.621094 180.824219 89.179688 180.8125 89.761719 180.84375 C 90.34375 180.871094 90.949219 180.929688 91.566406 181.023438 C 92.183594 181.117188 92.816406 181.257812 93.457031 181.4375 C 94.09375 181.625 94.738281 181.847656 95.378906 182.132812 C 95.539062 182.203125 95.699219 182.273438 95.859375 182.355469 C 96.015625 182.433594 96.175781 182.511719 96.332031 182.597656 C 96.488281 182.683594 96.648438 182.769531 96.796875 182.859375 C 96.871094 182.90625 96.945312 182.953125 97.019531 182.996094 C 97.054688 183.019531 97.097656 183.042969 97.136719 183.070312 L 97.261719 183.152344 C 97.339844 183.203125 97.421875 183.257812 97.503906 183.3125 C 97.574219 183.363281 97.640625 183.414062 97.707031 183.460938 C 97.78125 183.515625 97.851562 183.566406 97.925781 183.621094 C 97.992188 183.679688 98.0625 183.734375 98.132812 183.792969 C 98.410156 184.019531 98.667969 184.277344 98.914062 184.542969 C 99.402344 185.078125 99.800781 185.703125 100.09375 186.378906 C 100.113281 186.421875 100.136719 186.460938 100.152344 186.503906 L 100.199219 186.636719 C 100.230469 186.722656 100.261719 186.808594 100.292969 186.894531 C 100.320312 186.984375 100.34375 187.070312 100.371094 187.160156 L 100.410156 187.292969 C 100.421875 187.339844 100.429688 187.386719 100.441406 187.429688 C 100.460938 187.519531 100.480469 187.613281 100.5 187.703125 C 100.519531 187.792969 100.523438 187.886719 100.539062 187.980469 L 100.558594 188.121094 L 100.570312 188.1875 L 100.574219 188.257812 C 100.578125 188.351562 100.585938 188.445312 100.589844 188.542969 C 100.601562 188.636719 100.59375 188.722656 100.59375 188.808594 C 100.59375 188.898438 100.59375 188.976562 100.589844 189.070312 C 100.582031 189.183594 100.574219 189.296875 100.566406 189.410156 L 100.550781 189.578125 C 100.546875 189.632812 100.550781 189.554688 100.550781 189.578125 L 100.542969 189.613281 L 100.535156 189.683594 C 100.480469 190.070312 100.394531 190.453125 100.273438 190.828125 C 100.03125 191.574219 99.660156 192.296875 99.167969 192.980469 C 98.679688 193.660156 98.078125 194.296875 97.40625 194.898438 C 96.726562 195.496094 95.984375 196.0625 95.1875 196.605469 C 94.992188 196.742188 94.789062 196.875 94.585938 197.007812 C 94.484375 197.074219 94.382812 197.140625 94.277344 197.207031 C 94.175781 197.273438 94.070312 197.339844 93.964844 197.40625 C 93.75 197.542969 93.527344 197.683594 93.308594 197.824219 C 93.085938 197.960938 92.867188 198.109375 92.644531 198.257812 C 92.421875 198.402344 92.203125 198.550781 91.984375 198.703125 C 91.761719 198.855469 91.542969 199.007812 91.324219 199.167969 C 91.105469 199.324219 90.886719 199.480469 90.671875 199.644531 C 90.457031 199.808594 90.238281 199.96875 90.027344 200.136719 C 89.167969 200.804688 88.324219 201.511719 87.5 202.257812 C 85.851562 203.753906 84.292969 205.429688 82.902344 207.292969 C 82.207031 208.222656 81.550781 209.203125 80.957031 210.230469 C 80.367188 211.261719 79.835938 212.339844 79.378906 213.460938 C 78.921875 214.582031 78.550781 215.75 78.273438 216.945312 L 78.167969 217.398438 L 77.996094 218.304688 C 77.96875 218.460938 77.949219 218.621094 77.925781 218.78125 L 77.855469 219.261719 C 77.839844 219.410156 77.828125 219.546875 77.8125 219.6875 L 77.8125 219.707031 C 77.496094 218.886719 77.210938 218.027344 76.949219 217.15625 C 76.785156 216.609375 76.625 216.0625 76.460938 215.519531 C 76.300781 214.953125 76.105469 214.386719 75.917969 213.820312 C 75.820312 213.539062 75.714844 213.257812 75.613281 212.976562 C 75.515625 212.695312 75.402344 212.417969 75.289062 212.136719 L 75.121094 211.71875 L 74.9375 211.304688 C 74.816406 211.03125 74.695312 210.753906 74.566406 210.488281 C 74.054688 209.402344 73.496094 208.378906 72.964844 207.398438 C 72.832031 207.152344 72.699219 206.90625 72.566406 206.664062 C 72.4375 206.417969 72.3125 206.175781 72.183594 205.933594 C 71.933594 205.449219 71.683594 204.964844 71.445312 204.476562 C 71.203125 203.992188 70.976562 203.5 70.75 203.011719 C 70.523438 202.523438 70.3125 202.035156 70.09375 201.546875 C 69.882812 201.042969 69.671875 200.542969 69.460938 200.039062 C 69.261719 199.542969 69.066406 199.050781 68.878906 198.554688 C 68.507812 197.566406 68.164062 196.582031 67.871094 195.597656 C 67.578125 194.613281 67.328125 193.632812 67.144531 192.65625 C 67.050781 192.167969 66.972656 191.683594 66.910156 191.199219 C 66.875 190.957031 66.855469 190.714844 66.828125 190.476562 L 66.808594 190.292969 L 66.796875 190.121094 C 66.789062 190.007812 66.78125 189.894531 66.773438 189.777344 C 66.769531 189.71875 66.765625 189.667969 66.761719 189.601562 L 66.757812 189.410156 C 66.753906 189.28125 66.75 189.152344 66.746094 189.023438 L 66.742188 188.929688 C 66.742188 188.925781 66.742188 188.867188 66.742188 188.910156 L 66.742188 188.695312 C 66.742188 188.578125 66.746094 188.46875 66.75 188.355469 C 66.765625 187.910156 66.8125 187.476562 66.894531 187.09375 C 66.976562 186.707031 67.097656 186.367188 67.238281 186.136719 C 67.3125 186.023438 67.382812 185.933594 67.453125 185.871094 C 67.523438 185.804688 67.589844 185.757812 67.679688 185.71875 C 67.691406 185.714844 67.699219 185.707031 67.710938 185.703125 L 67.75 185.691406 L 67.785156 185.679688 C 67.789062 185.675781 67.796875 185.675781 67.800781 185.671875 C 67.804688 185.671875 67.8125 185.667969 67.816406 185.664062 C 67.839844 185.660156 67.875 185.65625 67.902344 185.652344 L 67.992188 185.640625 L 68.011719 185.640625 C 68.167969 185.628906 68.332031 185.625 68.5 185.644531 C 68.84375 185.675781 69.210938 185.769531 69.59375 185.90625 C 69.976562 186.042969 70.371094 186.222656 70.773438 186.417969 C 71.175781 186.613281 71.589844 186.824219 72.027344 187.035156 C 72.140625 187.089844 72.257812 187.144531 72.375 187.199219 C 72.480469 187.242188 72.582031 187.289062 72.6875 187.335938 C 72.800781 187.382812 72.914062 187.429688 73.023438 187.476562 C 73.132812 187.523438 73.238281 187.566406 73.347656 187.609375 C 73.773438 187.785156 74.203125 187.953125 74.632812 188.113281 C 75.496094 188.429688 76.359375 188.714844 77.226562 188.9375 C 77.441406 188.992188 77.65625 189.046875 77.882812 189.097656 C 77.996094 189.121094 78.097656 189.144531 78.199219 189.164062 L 78.355469 189.195312 L 78.523438 189.230469 C 78.734375 189.269531 78.945312 189.304688 79.152344 189.34375 C 79.363281 189.378906 79.574219 189.414062 79.78125 189.445312 C 80.613281 189.574219 81.425781 189.667969 82.222656 189.726562 C 83.816406 189.847656 85.324219 189.859375 86.734375 189.789062 C 88.148438 189.71875 89.453125 189.589844 90.671875 189.394531 C 91.289062 189.289062 91.875 189.144531 92.429688 188.941406 C 92.703125 188.839844 92.96875 188.71875 93.222656 188.578125 C 93.472656 188.433594 93.710938 188.265625 93.917969 188.054688 C 94.121094 187.84375 94.292969 187.589844 94.382812 187.308594 C 94.480469 187.03125 94.484375 186.738281 94.441406 186.484375 C 94.425781 186.414062 94.414062 186.347656 94.398438 186.285156 C 94.382812 186.226562 94.363281 186.179688 94.347656 186.125 C 94.304688 186 94.25 185.890625 94.191406 185.78125 C 94.0625 185.574219 93.898438 185.40625 93.730469 185.273438 C 93.390625 185.011719 93.039062 184.871094 92.714844 184.765625 C 92.394531 184.664062 92.097656 184.601562 91.832031 184.550781 C 91.300781 184.457031 90.894531 184.417969 90.621094 184.378906 C 90.347656 184.34375 90.207031 184.316406 90.207031 184.316406 C 90.207031 184.316406 90.339844 184.359375 90.609375 184.429688 C 90.875 184.503906 91.277344 184.597656 91.785156 184.75 C 92.035156 184.832031 92.316406 184.925781 92.605469 185.054688 C 92.894531 185.1875 93.203125 185.355469 93.449219 185.601562 C 93.574219 185.722656 93.679688 185.863281 93.753906 186.019531 C 93.789062 186.101562 93.820312 186.1875 93.835938 186.269531 C 93.84375 186.320312 93.859375 186.375 93.867188 186.425781 C 93.871094 186.46875 93.875 186.511719 93.878906 186.554688 C 93.890625 186.738281 93.867188 186.921875 93.789062 187.085938 C 93.714844 187.25 93.59375 187.398438 93.433594 187.53125 C 93.113281 187.796875 92.65625 187.976562 92.164062 188.113281 C 91.667969 188.246094 91.121094 188.324219 90.546875 188.371094 C 90.402344 188.382812 90.253906 188.390625 90.109375 188.394531 C 89.957031 188.402344 89.804688 188.40625 89.648438 188.414062 C 89.332031 188.425781 89.027344 188.429688 88.707031 188.4375 C 88.070312 188.445312 87.40625 188.441406 86.726562 188.417969 C 85.363281 188.363281 83.917969 188.25 82.414062 188.019531 C 81.664062 187.898438 80.902344 187.761719 80.125 187.589844 C 79.933594 187.542969 79.738281 187.496094 79.542969 187.453125 C 79.347656 187.402344 79.152344 187.351562 78.957031 187.300781 L 78.816406 187.265625 L 78.664062 187.222656 C 78.5625 187.195312 78.460938 187.167969 78.371094 187.140625 C 78.1875 187.085938 77.992188 187.019531 77.796875 186.957031 C 77.027344 186.699219 76.246094 186.394531 75.457031 186.050781 C 75.0625 185.875 74.667969 185.691406 74.269531 185.5 C 74.074219 185.40625 73.878906 185.3125 73.679688 185.214844 C 73.578125 185.164062 73.476562 185.113281 73.375 185.058594 C 73.285156 185.011719 73.199219 184.960938 73.105469 184.914062 C 72.339844 184.484375 71.511719 183.96875 70.507812 183.542969 C 70.003906 183.335938 69.449219 183.152344 68.832031 183.058594 C 68.527344 183.011719 68.203125 182.992188 67.875 183 L 67.8125 183 C 67.804688 183 67.714844 183.007812 67.707031 183.007812 L 67.621094 183.015625 L 67.523438 183.023438 L 67.363281 183.050781 L 67.199219 183.078125 C 67.152344 183.089844 67.105469 183.101562 67.058594 183.113281 L 66.917969 183.148438 C 66.871094 183.164062 66.824219 183.179688 66.777344 183.195312 C 66.40625 183.324219 66.042969 183.523438 65.734375 183.773438 C 65.421875 184.023438 65.164062 184.3125 64.960938 184.613281 C 64.554688 185.214844 64.332031 185.835938 64.175781 186.429688 C 64.023438 187.023438 63.941406 187.605469 63.894531 188.179688 C 63.882812 188.320312 63.875 188.464844 63.867188 188.605469 L 63.859375 188.820312 L 63.855469 188.875 L 63.855469 189.046875 C 63.851562 189.175781 63.851562 189.304688 63.851562 189.433594 L 63.847656 189.625 C 63.847656 189.691406 63.851562 189.765625 63.851562 189.835938 C 63.855469 189.980469 63.859375 190.125 63.863281 190.269531 L 63.871094 190.484375 L 63.882812 190.691406 C 63.902344 190.96875 63.910156 191.25 63.941406 191.523438 C 63.96875 191.800781 63.992188 192.078125 64.03125 192.355469 C 64.070312 192.628906 64.101562 192.90625 64.148438 193.179688 C 64.324219 194.28125 64.5625 195.375 64.847656 196.457031 C 65.136719 197.539062 65.464844 198.613281 65.835938 199.671875 C 66.023438 200.203125 66.21875 200.730469 66.417969 201.253906 C 66.617188 201.769531 66.820312 202.289062 67.023438 202.808594 C 67.246094 203.335938 67.460938 203.867188 67.6875 204.390625 C 67.917969 204.914062 68.144531 205.4375 68.390625 205.957031 C 68.628906 206.480469 68.886719 206.992188 69.140625 207.507812 C 69.269531 207.761719 69.398438 208.019531 69.53125 208.273438 C 69.660156 208.527344 69.792969 208.777344 69.921875 209.03125 C 70.445312 210.039062 70.960938 211.003906 71.402344 211.976562 C 71.851562 212.949219 72.234375 213.945312 72.585938 214.972656 C 72.753906 215.492188 72.925781 216.007812 73.074219 216.539062 L 73.308594 217.34375 L 73.429688 217.761719 L 73.554688 218.191406 C 73.894531 219.324219 74.269531 220.453125 74.738281 221.601562 C 74.976562 222.175781 75.238281 222.75 75.582031 223.351562 C 75.757812 223.65625 75.949219 223.964844 76.234375 224.3125 C 76.378906 224.484375 76.542969 224.667969 76.789062 224.867188 C 76.910156 224.964844 77.066406 225.074219 77.253906 225.175781 C 77.300781 225.199219 77.359375 225.226562 77.410156 225.25 C 77.464844 225.273438 77.519531 225.296875 77.585938 225.316406 C 77.648438 225.339844 77.714844 225.359375 77.777344 225.378906 C 77.851562 225.394531 77.925781 225.410156 78 225.421875 C 78.308594 225.472656 78.679688 225.457031 79.007812 225.351562 C 79.089844 225.324219 79.164062 225.296875 79.242188 225.261719 C 79.320312 225.230469 79.386719 225.195312 79.449219 225.15625 C 79.515625 225.121094 79.582031 225.078125 79.636719 225.039062 C 79.691406 225.003906 79.742188 224.960938 79.796875 224.921875 C 79.851562 224.878906 79.886719 224.839844 79.929688 224.800781 C 79.96875 224.761719 80.015625 224.71875 80.046875 224.679688 C 80.082031 224.644531 80.113281 224.605469 80.144531 224.566406 C 80.179688 224.527344 80.207031 224.492188 80.230469 224.457031 C 80.28125 224.386719 80.335938 224.3125 80.371094 224.25 C 80.414062 224.1875 80.453125 224.117188 80.484375 224.058594 C 80.613281 223.816406 80.699219 223.601562 80.769531 223.40625 C 80.835938 223.207031 80.890625 223.019531 80.933594 222.839844 C 81.023438 222.484375 81.082031 222.152344 81.128906 221.828125 C 81.175781 221.507812 81.210938 221.191406 81.242188 220.882812 L 81.261719 220.652344 L 81.277344 220.460938 L 81.316406 220.035156 C 81.332031 219.894531 81.34375 219.75 81.355469 219.613281 L 81.410156 219.246094 L 81.460938 218.878906 L 81.527344 218.496094 L 81.597656 218.113281 L 81.679688 217.730469 C 81.902344 216.714844 82.210938 215.71875 82.585938 214.746094 C 82.960938 213.777344 83.410156 212.832031 83.914062 211.917969 C 84.414062 211.003906 84.976562 210.121094 85.578125 209.269531 C 86.789062 207.570312 88.175781 206.011719 89.644531 204.578125 C 90.386719 203.863281 91.148438 203.183594 91.929688 202.535156 C 92.121094 202.371094 92.320312 202.214844 92.515625 202.054688 C 92.710938 201.894531 92.910156 201.742188 93.109375 201.589844 L 93.40625 201.355469 L 93.707031 201.132812 C 93.90625 200.980469 94.109375 200.832031 94.3125 200.683594 C 94.511719 200.539062 94.710938 200.394531 94.917969 200.253906 C 95.125 200.109375 95.332031 199.964844 95.535156 199.824219 C 95.644531 199.746094 95.75 199.671875 95.859375 199.597656 C 95.96875 199.523438 96.074219 199.449219 96.179688 199.371094 C 96.394531 199.21875 96.605469 199.066406 96.816406 198.90625 C 97.660156 198.28125 98.476562 197.609375 99.230469 196.867188 C 99.984375 196.125 100.679688 195.308594 101.261719 194.40625 C 101.839844 193.507812 102.300781 192.519531 102.5625 191.484375 C 102.695312 190.96875 102.78125 190.445312 102.820312 189.925781 L 102.828125 189.828125 L 102.832031 189.78125 C 102.835938 189.773438 102.839844 189.667969 102.839844 189.691406 L 102.84375 189.523438 C 102.84375 189.410156 102.847656 189.296875 102.847656 189.183594 " fill-opacity="1" fill-rule="nonzero"/></g><g clip-path="url(#0a2b553906)"><path fill="#274f81" d="M 101.191406 196.757812 C 101.191406 196.757812 101.183594 196.800781 101.171875 196.882812 C 101.15625 196.964844 101.136719 197.085938 101.109375 197.242188 C 101.054688 197.558594 100.964844 198.019531 100.832031 198.605469 C 100.699219 199.1875 100.515625 199.890625 100.285156 200.691406 C 100.226562 200.894531 100.167969 201.09375 100.097656 201.3125 C 100.03125 201.523438 99.960938 201.738281 99.890625 201.960938 C 99.75 202.402344 99.597656 202.863281 99.421875 203.351562 C 99.339844 203.59375 99.25 203.839844 99.15625 204.09375 C 99.066406 204.347656 98.964844 204.597656 98.867188 204.859375 C 98.671875 205.378906 98.441406 205.902344 98.214844 206.449219 C 97.75 207.53125 97.210938 208.65625 96.648438 209.789062 C 96.371094 210.355469 96.09375 210.925781 95.828125 211.503906 C 95.695312 211.792969 95.570312 212.082031 95.441406 212.375 C 95.320312 212.671875 95.191406 212.964844 95.074219 213.265625 C 94.605469 214.460938 94.1875 215.707031 93.828125 216.988281 C 93.730469 217.308594 93.636719 217.632812 93.539062 217.957031 C 93.441406 218.292969 93.339844 218.621094 93.234375 218.949219 C 93.027344 219.605469 92.792969 220.257812 92.542969 220.902344 C 92.417969 221.222656 92.289062 221.542969 92.148438 221.859375 C 92.007812 222.175781 91.855469 222.492188 91.691406 222.804688 C 91.523438 223.117188 91.347656 223.429688 91.132812 223.742188 C 91.023438 223.898438 90.910156 224.054688 90.769531 224.214844 C 90.628906 224.371094 90.46875 224.535156 90.238281 224.695312 C 90.125 224.773438 89.980469 224.855469 89.804688 224.917969 C 89.632812 224.984375 89.398438 225.023438 89.160156 225 C 88.925781 224.976562 88.691406 224.878906 88.527344 224.765625 C 88.484375 224.738281 88.449219 224.710938 88.414062 224.679688 L 88.359375 224.636719 L 88.3125 224.59375 C 88.28125 224.5625 88.253906 224.53125 88.226562 224.503906 L 88.152344 224.414062 C 87.96875 224.183594 87.878906 223.980469 87.796875 223.789062 C 87.722656 223.59375 87.671875 223.414062 87.625 223.242188 C 87.539062 222.890625 87.484375 222.5625 87.445312 222.246094 C 87.40625 221.925781 87.378906 221.613281 87.367188 221.308594 C 87.359375 221.160156 87.351562 221.007812 87.347656 220.859375 C 87.34375 220.789062 87.34375 220.722656 87.339844 220.652344 C 87.335938 220.582031 87.335938 220.511719 87.332031 220.441406 C 87.324219 220.148438 87.296875 219.902344 87.285156 219.636719 C 87.242188 219.109375 87.191406 218.601562 87.117188 218.113281 C 86.976562 217.132812 86.78125 216.242188 86.578125 215.453125 C 86.371094 214.667969 86.160156 213.984375 85.96875 213.425781 C 85.921875 213.285156 85.871094 213.15625 85.828125 213.03125 C 85.785156 212.90625 85.746094 212.789062 85.707031 212.683594 C 85.625 212.46875 85.558594 212.28125 85.5 212.132812 C 85.386719 211.835938 85.324219 211.675781 85.324219 211.675781 C 85.324219 211.675781 85.425781 211.8125 85.609375 212.074219 C 85.792969 212.335938 86.054688 212.726562 86.359375 213.246094 C 86.664062 213.761719 87.011719 214.40625 87.359375 215.175781 C 87.535156 215.558594 87.699219 215.976562 87.867188 216.421875 C 88.03125 216.867188 88.1875 217.34375 88.332031 217.847656 C 88.367188 217.972656 88.402344 218.101562 88.4375 218.230469 C 88.46875 218.359375 88.5 218.492188 88.53125 218.625 C 88.566406 218.757812 88.59375 218.894531 88.625 219.03125 C 88.652344 219.164062 88.679688 219.304688 88.710938 219.441406 C 88.734375 219.585938 88.761719 219.730469 88.785156 219.875 C 88.8125 220.023438 88.832031 220.160156 88.851562 220.300781 C 88.871094 220.441406 88.890625 220.585938 88.914062 220.734375 C 88.929688 220.871094 88.949219 221.007812 88.972656 221.144531 C 89.015625 221.421875 89.0625 221.695312 89.117188 221.964844 C 89.175781 222.234375 89.242188 222.5 89.324219 222.738281 C 89.367188 222.859375 89.410156 222.96875 89.457031 223.0625 C 89.5 223.152344 89.554688 223.226562 89.570312 223.234375 C 89.578125 223.246094 89.570312 223.222656 89.535156 223.199219 C 89.503906 223.175781 89.421875 223.132812 89.339844 223.125 C 89.257812 223.113281 89.183594 223.132812 89.15625 223.136719 C 89.128906 223.144531 89.125 223.152344 89.136719 223.132812 C 89.164062 223.113281 89.230469 223.042969 89.292969 222.957031 C 89.359375 222.871094 89.429688 222.765625 89.5 222.65625 C 89.636719 222.429688 89.769531 222.167969 89.898438 221.898438 C 90.023438 221.628906 90.144531 221.34375 90.261719 221.050781 C 90.378906 220.761719 90.488281 220.464844 90.597656 220.164062 C 90.816406 219.558594 91.011719 218.933594 91.207031 218.304688 C 91.304688 217.992188 91.398438 217.671875 91.488281 217.355469 L 91.625 216.871094 L 91.769531 216.378906 C 91.871094 216.046875 91.964844 215.714844 92.074219 215.386719 C 92.183594 215.054688 92.292969 214.726562 92.402344 214.398438 C 92.515625 214.070312 92.640625 213.746094 92.761719 213.421875 C 92.886719 213.097656 93.023438 212.78125 93.15625 212.460938 C 93.292969 212.144531 93.433594 211.832031 93.578125 211.523438 C 93.726562 211.21875 93.878906 210.914062 94.03125 210.613281 C 94.1875 210.320312 94.339844 210.023438 94.5 209.738281 C 94.65625 209.449219 94.816406 209.167969 94.976562 208.890625 C 95.609375 207.785156 96.21875 206.742188 96.773438 205.734375 C 97.046875 205.230469 97.316406 204.738281 97.566406 204.257812 C 97.691406 204.019531 97.816406 203.785156 97.9375 203.550781 C 98.054688 203.320312 98.167969 203.089844 98.285156 202.867188 C 98.398438 202.640625 98.515625 202.425781 98.621094 202.207031 C 98.726562 201.988281 98.832031 201.773438 98.933594 201.566406 C 99.039062 201.359375 99.140625 201.15625 99.238281 200.960938 C 99.332031 200.765625 99.425781 200.578125 99.515625 200.394531 C 99.875 199.652344 100.179688 199.003906 100.425781 198.464844 C 100.671875 197.925781 100.863281 197.5 100.992188 197.207031 C 101.121094 196.914062 101.191406 196.757812 101.191406 196.757812 " fill-opacity="1" fill-rule="nonzero"/></g><g fill="#1b0050" fill-opacity="1"><g transform="translate(104.442551, 214.365454)"><g><path d="M 30.78125 -6.90625 C 30.875 -6.875 30.921875 -6.796875 30.921875 -6.671875 C 30.921875 -6.554688 30.890625 -6.425781 30.828125 -6.28125 C 30.773438 -6.132812 30.734375 -6.015625 30.703125 -5.921875 C 29.691406 -3.546875 28.488281 -1.269531 27.09375 0.90625 C 25.707031 3.082031 24.046875 5 22.109375 6.65625 C 21.078125 7.507812 19.988281 8.28125 18.84375 8.96875 C 17.707031 9.664062 16.476562 10.25 15.15625 10.71875 C 14.320312 11.007812 13.5625 11.21875 12.875 11.34375 C 12.195312 11.46875 11.40625 11.519531 10.5 11.5 C 9.988281 11.519531 9.472656 11.507812 8.953125 11.46875 C 8.441406 11.425781 7.925781 11.335938 7.40625 11.203125 C 4.976562 10.503906 3.171875 9.023438 1.984375 6.765625 C 1.578125 5.972656 1.257812 5.171875 1.03125 4.359375 C 0.8125 3.546875 0.644531 2.734375 0.53125 1.921875 C 0.257812 -0.273438 0.25 -2.429688 0.5 -4.546875 C 0.84375 -7.492188 1.441406 -10.320312 2.296875 -13.03125 C 3.148438 -15.75 4.222656 -18.359375 5.515625 -20.859375 C 6.929688 -23.640625 8.675781 -26.1875 10.75 -28.5 C 12.175781 -30.113281 13.804688 -31.488281 15.640625 -32.625 C 17.003906 -33.5 18.523438 -34.066406 20.203125 -34.328125 C 20.941406 -34.460938 21.6875 -34.429688 22.4375 -34.234375 C 23.613281 -33.953125 24.363281 -33.226562 24.6875 -32.0625 C 24.90625 -31.125 24.898438 -29.957031 24.671875 -28.5625 C 24.453125 -27.175781 24.097656 -25.722656 23.609375 -24.203125 C 23.117188 -22.691406 22.578125 -21.289062 21.984375 -20 C 21.390625 -18.707031 20.84375 -17.679688 20.34375 -16.921875 C 20.195312 -16.722656 20.019531 -16.601562 19.8125 -16.5625 C 19.601562 -16.519531 19.375 -16.53125 19.125 -16.59375 C 18.988281 -16.625 18.878906 -16.695312 18.796875 -16.8125 C 18.710938 -16.925781 18.695312 -17.03125 18.75 -17.125 C 18.800781 -17.28125 18.863281 -17.429688 18.9375 -17.578125 C 18.976562 -17.660156 19.019531 -17.75 19.0625 -17.84375 C 19.25 -18.28125 19.460938 -18.765625 19.703125 -19.296875 C 20.222656 -20.472656 20.769531 -21.757812 21.34375 -23.15625 C 21.914062 -24.550781 22.378906 -25.941406 22.734375 -27.328125 C 23.085938 -28.722656 23.210938 -29.984375 23.109375 -31.109375 C 22.941406 -33.003906 21.976562 -33.710938 20.21875 -33.234375 C 19.445312 -33.015625 18.726562 -32.726562 18.0625 -32.375 C 17.394531 -32.03125 16.757812 -31.640625 16.15625 -31.203125 C 14.925781 -30.316406 13.8125 -29.332031 12.8125 -28.25 C 11.8125 -27.175781 10.894531 -26.03125 10.0625 -24.8125 C 5.9375 -18.820312 3.40625 -12.035156 2.46875 -4.453125 C 2.1875 -2.253906 2.191406 -0.0078125 2.484375 2.28125 C 2.648438 3.59375 3.035156 4.882812 3.640625 6.15625 C 4.253906 7.40625 4.984375 8.359375 5.828125 9.015625 C 6.671875 9.679688 7.546875 10.117188 8.453125 10.328125 C 9.359375 10.535156 10.210938 10.59375 11.015625 10.5 C 12.429688 10.332031 13.757812 9.960938 15 9.390625 C 17.46875 8.265625 19.484375 7.066406 21.046875 5.796875 C 22.617188 4.523438 23.9375 3.1875 25 1.78125 C 26.0625 0.382812 27.054688 -1.070312 27.984375 -2.59375 C 28.359375 -3.195312 28.675781 -3.78125 28.9375 -4.34375 C 29.257812 -5.007812 29.679688 -5.753906 30.203125 -6.578125 C 30.378906 -6.828125 30.570312 -6.9375 30.78125 -6.90625 Z M 30.78125 -6.90625 "/></g></g></g><g fill="#1b0050" fill-opacity="1"><g transform="translate(133.91437, 214.365454)"><g><path d="M 7.90625 -5.109375 C 8.03125 -5.398438 8.164062 -5.546875 8.3125 -5.546875 C 8.457031 -5.546875 8.503906 -5.398438 8.453125 -5.109375 C 8.210938 -4.359375 7.925781 -3.640625 7.59375 -2.953125 C 7.257812 -2.273438 6.800781 -1.664062 6.21875 -1.125 C 5.78125 -0.6875 5.257812 -0.40625 4.65625 -0.28125 C 3.832031 -0.164062 3.148438 -0.265625 2.609375 -0.578125 C 2.078125 -0.890625 1.648438 -1.335938 1.328125 -1.921875 C 1.015625 -2.515625 0.78125 -3.160156 0.625 -3.859375 C 0.476562 -4.554688 0.382812 -5.234375 0.34375 -5.890625 C 0.226562 -7.128906 0.140625 -8.757812 0.078125 -10.78125 C 0.0234375 -12.8125 0.046875 -14.953125 0.140625 -17.203125 C 0.234375 -19.460938 0.453125 -21.554688 0.796875 -23.484375 C 1.148438 -25.410156 1.660156 -26.90625 2.328125 -27.96875 C 2.722656 -28.488281 3.175781 -28.75 3.6875 -28.75 C 4.195312 -28.757812 4.65625 -28.523438 5.0625 -28.046875 C 5.332031 -27.671875 5.535156 -27.273438 5.671875 -26.859375 C 5.816406 -26.441406 5.910156 -26.019531 5.953125 -25.59375 C 6.097656 -24.113281 6.078125 -22.546875 5.890625 -20.890625 C 5.710938 -19.242188 5.425781 -17.484375 5.03125 -15.609375 C 4.632812 -13.742188 4.160156 -12.097656 3.609375 -10.671875 C 3.066406 -9.253906 2.613281 -8.128906 2.25 -7.296875 C 2.050781 -6.960938 1.976562 -6.457031 2.03125 -5.78125 C 2.09375 -5.039062 2.226562 -4.265625 2.4375 -3.453125 C 2.65625 -2.648438 2.960938 -2.019531 3.359375 -1.5625 C 3.722656 -1.164062 4.128906 -1.039062 4.578125 -1.1875 C 5.035156 -1.332031 5.488281 -1.640625 5.9375 -2.109375 C 6.382812 -2.578125 6.78125 -3.085938 7.125 -3.640625 C 7.46875 -4.191406 7.726562 -4.679688 7.90625 -5.109375 Z M 2.078125 -16.3125 C 2.023438 -15.832031 1.976562 -15.101562 1.9375 -14.125 C 1.90625 -13.15625 1.867188 -12.164062 1.828125 -11.15625 C 1.796875 -10.03125 1.765625 -9.15625 1.734375 -8.53125 C 2.085938 -9.332031 2.5 -10.5 2.96875 -12.03125 C 3.445312 -13.5625 3.878906 -15.367188 4.265625 -17.453125 C 4.660156 -19.535156 4.921875 -21.789062 5.046875 -24.21875 C 4.972656 -25.632812 4.800781 -26.59375 4.53125 -27.09375 C 4.257812 -27.59375 3.960938 -27.632812 3.640625 -27.21875 C 3.316406 -26.800781 3.0625 -25.925781 2.875 -24.59375 C 2.582031 -22.382812 2.351562 -20.171875 2.1875 -17.953125 C 2.144531 -17.398438 2.109375 -16.851562 2.078125 -16.3125 Z M 2.078125 -16.3125 "/></g></g></g><g fill="#1b0050" fill-opacity="1"><g transform="translate(141.701239, 214.365454)"><g><path d="M 5.6875 -4.453125 C 5.457031 -3.984375 5.070312 -3.460938 4.53125 -2.890625 C 3.988281 -2.316406 3.367188 -1.953125 2.671875 -1.796875 C 1.984375 -1.648438 1.328125 -1.890625 0.703125 -2.515625 C 0.460938 -2.796875 0.285156 -3.113281 0.171875 -3.46875 C 0.0546875 -3.832031 0.015625 -4.191406 0.046875 -4.546875 C 0.046875 -4.640625 0.046875 -4.757812 0.046875 -4.90625 C 0.046875 -5.28125 0.0625 -5.710938 0.09375 -6.203125 C 0.125 -6.691406 0.195312 -7.132812 0.3125 -7.53125 C 0.425781 -7.925781 0.601562 -8.160156 0.84375 -8.234375 C 1.539062 -8.410156 1.914062 -8.171875 1.96875 -7.515625 C 1.96875 -7.304688 1.960938 -7.09375 1.953125 -6.875 C 1.929688 -6.769531 1.921875 -6.671875 1.921875 -6.578125 C 1.910156 -6.265625 1.898438 -5.957031 1.890625 -5.65625 C 1.890625 -5.414062 1.875 -5.175781 1.84375 -4.9375 C 1.832031 -3.875 2.070312 -3.238281 2.5625 -3.03125 C 3.050781 -2.832031 3.609375 -3.046875 4.234375 -3.671875 C 4.867188 -4.304688 5.28125 -4.832031 5.46875 -5.25 C 5.664062 -5.664062 5.804688 -5.753906 5.890625 -5.515625 C 5.984375 -5.273438 5.914062 -4.921875 5.6875 -4.453125 Z M 1.828125 -10.5 C 1.734375 -10.414062 1.617188 -10.363281 1.484375 -10.34375 C 1.347656 -10.320312 1.226562 -10.332031 1.125 -10.375 C 1.050781 -10.4375 1 -10.519531 0.96875 -10.625 C 0.945312 -10.738281 0.9375 -10.867188 0.9375 -11.015625 C 0.9375 -11.035156 0.945312 -11.0625 0.96875 -11.09375 C 0.976562 -11.226562 1.007812 -11.363281 1.0625 -11.5 C 1.207031 -11.84375 1.507812 -12 1.96875 -11.96875 C 2.132812 -11.945312 2.257812 -11.878906 2.34375 -11.765625 C 2.4375 -11.660156 2.457031 -11.535156 2.40625 -11.390625 C 2.300781 -11.035156 2.109375 -10.738281 1.828125 -10.5 Z M 1.828125 -10.5 "/></g></g></g><g fill="#1b0050" fill-opacity="1"><g transform="translate(147.078668, 214.365454)"><g><path d="M 9.0625 -4.203125 C 9.625 -5.097656 9.957031 -5.664062 10.0625 -5.90625 C 10.164062 -6.15625 10.25 -6.144531 10.3125 -5.875 C 10.375 -5.613281 10.191406 -5.019531 9.765625 -4.09375 C 9.347656 -3.175781 8.820312 -2.46875 8.1875 -1.96875 C 7.5625 -1.46875 6.976562 -1.28125 6.4375 -1.40625 C 5.894531 -1.539062 5.503906 -1.921875 5.265625 -2.546875 C 5.035156 -3.171875 4.96875 -3.957031 5.0625 -4.90625 C 5.0625 -4.925781 5.066406 -4.96875 5.078125 -5.03125 C 5.097656 -5.1875 5.125 -5.421875 5.15625 -5.734375 C 5.195312 -6.054688 5.226562 -6.382812 5.25 -6.71875 C 5.269531 -7.050781 5.257812 -7.328125 5.21875 -7.546875 C 5.175781 -7.765625 5.078125 -7.84375 4.921875 -7.78125 C 4.535156 -7.5625 4.15625 -7.144531 3.78125 -6.53125 C 3.414062 -5.914062 3.082031 -5.269531 2.78125 -4.59375 C 2.476562 -3.914062 2.265625 -3.367188 2.140625 -2.953125 C 2.097656 -2.828125 2.050781 -2.691406 2 -2.546875 C 1.9375 -2.347656 1.863281 -2.15625 1.78125 -1.96875 C 1.570312 -1.425781 1.203125 -1.21875 0.671875 -1.34375 C 0.378906 -1.40625 0.210938 -1.582031 0.171875 -1.875 C 0.148438 -2.101562 0.140625 -2.316406 0.140625 -2.515625 C 0.140625 -2.648438 0.132812 -2.769531 0.125 -2.875 C 0.09375 -4.5 0.0507812 -6.132812 0 -7.78125 C 0.0078125 -7.96875 0.09375 -8.097656 0.25 -8.171875 C 0.40625 -8.242188 0.585938 -8.28125 0.796875 -8.28125 C 0.960938 -8.28125 1.113281 -8.234375 1.25 -8.140625 C 1.394531 -8.054688 1.484375 -7.878906 1.515625 -7.609375 C 1.535156 -7.503906 1.546875 -7.40625 1.546875 -7.3125 C 1.554688 -7.257812 1.5625 -7.210938 1.5625 -7.171875 C 1.59375 -6.953125 1.609375 -6.757812 1.609375 -6.59375 C 1.609375 -6.351562 1.625 -6.1875 1.65625 -6.09375 C 1.6875 -6.007812 1.753906 -6.015625 1.859375 -6.109375 C 1.972656 -6.203125 2.148438 -6.429688 2.390625 -6.796875 C 2.804688 -7.429688 3.320312 -7.972656 3.9375 -8.421875 C 4.5 -8.828125 5.113281 -8.992188 5.78125 -8.921875 C 6.363281 -8.867188 6.753906 -8.566406 6.953125 -8.015625 C 7.023438 -7.742188 7.0625 -7.46875 7.0625 -7.1875 C 7.0625 -6.90625 7.046875 -6.617188 7.015625 -6.328125 C 6.992188 -6.035156 6.972656 -5.738281 6.953125 -5.4375 C 6.921875 -5.34375 6.898438 -5.25 6.890625 -5.15625 C 6.796875 -4.101562 6.828125 -3.398438 6.984375 -3.046875 C 7.148438 -2.691406 7.394531 -2.570312 7.71875 -2.6875 C 8.050781 -2.8125 8.5 -3.316406 9.0625 -4.203125 Z M 9.0625 -4.203125 "/></g></g></g><g fill="#1b0050" fill-opacity="1"><g transform="translate(156.716424, 214.365454)"><g><path d="M 5.6875 -4.453125 C 5.457031 -3.984375 5.070312 -3.460938 4.53125 -2.890625 C 3.988281 -2.316406 3.367188 -1.953125 2.671875 -1.796875 C 1.984375 -1.648438 1.328125 -1.890625 0.703125 -2.515625 C 0.460938 -2.796875 0.285156 -3.113281 0.171875 -3.46875 C 0.0546875 -3.832031 0.015625 -4.191406 0.046875 -4.546875 C 0.046875 -4.640625 0.046875 -4.757812 0.046875 -4.90625 C 0.046875 -5.28125 0.0625 -5.710938 0.09375 -6.203125 C 0.125 -6.691406 0.195312 -7.132812 0.3125 -7.53125 C 0.425781 -7.925781 0.601562 -8.160156 0.84375 -8.234375 C 1.539062 -8.410156 1.914062 -8.171875 1.96875 -7.515625 C 1.96875 -7.304688 1.960938 -7.09375 1.953125 -6.875 C 1.929688 -6.769531 1.921875 -6.671875 1.921875 -6.578125 C 1.910156 -6.265625 1.898438 -5.957031 1.890625 -5.65625 C 1.890625 -5.414062 1.875 -5.175781 1.84375 -4.9375 C 1.832031 -3.875 2.070312 -3.238281 2.5625 -3.03125 C 3.050781 -2.832031 3.609375 -3.046875 4.234375 -3.671875 C 4.867188 -4.304688 5.28125 -4.832031 5.46875 -5.25 C 5.664062 -5.664062 5.804688 -5.753906 5.890625 -5.515625 C 5.984375 -5.273438 5.914062 -4.921875 5.6875 -4.453125 Z M 1.828125 -10.5 C 1.734375 -10.414062 1.617188 -10.363281 1.484375 -10.34375 C 1.347656 -10.320312 1.226562 -10.332031 1.125 -10.375 C 1.050781 -10.4375 1 -10.519531 0.96875 -10.625 C 0.945312 -10.738281 0.9375 -10.867188 0.9375 -11.015625 C 0.9375 -11.035156 0.945312 -11.0625 0.96875 -11.09375 C 0.976562 -11.226562 1.007812 -11.363281 1.0625 -11.5 C 1.207031 -11.84375 1.507812 -12 1.96875 -11.96875 C 2.132812 -11.945312 2.257812 -11.878906 2.34375 -11.765625 C 2.4375 -11.660156 2.457031 -11.535156 2.40625 -11.390625 C 2.300781 -11.035156 2.109375 -10.738281 1.828125 -10.5 Z M 1.828125 -10.5 "/></g></g></g><g fill="#1b0050" fill-opacity="1"><g transform="translate(162.093854, 214.365454)"><g><path d="M 10.171875 -5.34375 C 10.472656 -5.53125 10.671875 -5.582031 10.765625 -5.5 C 10.867188 -5.425781 10.804688 -5.238281 10.578125 -4.9375 C 9.921875 -4.144531 9.101562 -3.40625 8.125 -2.71875 C 7.15625 -2.039062 6.1875 -1.550781 5.21875 -1.25 C 4.601562 -1.019531 3.941406 -0.90625 3.234375 -0.90625 C 2.734375 -0.894531 2.234375 -0.96875 1.734375 -1.125 C 0.640625 -1.476562 0.0195312 -2.222656 -0.125 -3.359375 C -0.195312 -3.992188 -0.15625 -4.625 0 -5.25 C 0.1875 -5.894531 0.492188 -6.457031 0.921875 -6.9375 C 1.347656 -7.414062 1.878906 -7.785156 2.515625 -8.046875 C 3.097656 -8.265625 3.707031 -8.347656 4.34375 -8.296875 C 4.976562 -8.253906 5.5 -8.054688 5.90625 -7.703125 C 5.96875 -7.640625 6 -7.554688 6 -7.453125 C 6 -7.359375 5.984375 -7.265625 5.953125 -7.171875 C 5.859375 -6.878906 5.722656 -6.742188 5.546875 -6.765625 C 5.367188 -6.785156 5.160156 -6.859375 4.921875 -6.984375 C 4.742188 -7.078125 4.546875 -7.160156 4.328125 -7.234375 C 4.117188 -7.316406 3.90625 -7.335938 3.6875 -7.296875 C 3.0625 -7.203125 2.539062 -6.863281 2.125 -6.28125 C 1.78125 -5.789062 1.546875 -5.25 1.421875 -4.65625 C 1.304688 -4.070312 1.351562 -3.546875 1.5625 -3.078125 C 1.820312 -2.597656 2.238281 -2.320312 2.8125 -2.25 C 3.394531 -2.1875 4.054688 -2.253906 4.796875 -2.453125 C 5.535156 -2.660156 6.273438 -2.941406 7.015625 -3.296875 C 7.753906 -3.648438 8.410156 -4.007812 8.984375 -4.375 C 9.554688 -4.75 9.953125 -5.070312 10.171875 -5.34375 Z M 10.171875 -5.34375 "/></g></g></g><g fill="#1b0050" fill-opacity="1"><g transform="translate(172.169689, 214.365454)"><g><path d="M 12.390625 -5.625 C 12.191406 -5.019531 11.796875 -4.316406 11.203125 -3.515625 C 10.609375 -2.722656 9.863281 -2.210938 8.96875 -1.984375 C 8.082031 -1.765625 7.3125 -1.796875 6.65625 -2.078125 C 6.007812 -2.367188 5.65625 -3.144531 5.59375 -4.40625 C 4.851562 -2.96875 4.144531 -2.046875 3.46875 -1.640625 C 2.800781 -1.242188 2.109375 -1.09375 1.390625 -1.1875 C 0.578125 -1.320312 0.0234375 -1.640625 -0.265625 -2.140625 C -0.554688 -2.648438 -0.65625 -3.234375 -0.5625 -3.890625 C -0.46875 -4.554688 -0.265625 -5.191406 0.046875 -5.796875 C 0.285156 -6.242188 0.617188 -6.660156 1.046875 -7.046875 C 1.472656 -7.441406 1.921875 -7.75 2.390625 -7.96875 C 2.960938 -8.257812 3.539062 -8.394531 4.125 -8.375 C 4.707031 -8.363281 5.332031 -8.171875 6 -7.796875 C 6.019531 -7.785156 6.03125 -7.800781 6.03125 -7.84375 C 6.03125 -7.90625 6.046875 -7.984375 6.078125 -8.078125 C 6.109375 -8.179688 6.164062 -8.265625 6.25 -8.328125 C 6.46875 -8.484375 6.722656 -8.5625 7.015625 -8.5625 C 7.316406 -8.5625 7.550781 -8.414062 7.71875 -8.125 C 7.738281 -7.726562 7.695312 -7.234375 7.59375 -6.640625 C 7.351562 -5.328125 7.351562 -4.378906 7.59375 -3.796875 C 7.832031 -3.222656 8.253906 -2.957031 8.859375 -3 C 9.472656 -3.039062 10.265625 -3.640625 11.234375 -4.796875 C 12.210938 -5.960938 12.597656 -6.238281 12.390625 -5.625 Z M 1.609375 -2.546875 C 1.941406 -2.304688 2.328125 -2.335938 2.765625 -2.640625 C 3.203125 -2.941406 3.617188 -3.375 4.015625 -3.9375 C 4.421875 -4.5 4.757812 -5.0625 5.03125 -5.625 C 5.300781 -6.1875 5.453125 -6.601562 5.484375 -6.875 C 4.671875 -7.3125 3.972656 -7.382812 3.390625 -7.09375 C 2.804688 -6.8125 2.335938 -6.34375 1.984375 -5.6875 C 1.640625 -5.039062 1.429688 -4.40625 1.359375 -3.78125 C 1.296875 -3.164062 1.378906 -2.753906 1.609375 -2.546875 Z M 1.609375 -2.546875 "/></g></g></g><g fill="#1b0050" fill-opacity="1"><g transform="translate(183.778804, 214.365454)"><g/></g></g><g fill="#1b0050" fill-opacity="1"><g transform="translate(189.342418, 214.365454)"><g><path d="M 25.390625 -23.75 C 25.785156 -21.726562 26.039062 -19.304688 26.15625 -16.484375 C 26.1875 -14.359375 26.019531 -12.117188 25.65625 -9.765625 C 25.289062 -7.421875 24.640625 -5.078125 23.703125 -2.734375 C 23.097656 -1.359375 22.394531 -0.046875 21.59375 1.203125 C 20.800781 2.460938 19.863281 3.613281 18.78125 4.65625 C 17.9375 5.476562 17.003906 6.160156 15.984375 6.703125 C 14.859375 7.304688 13.644531 7.660156 12.34375 7.765625 C 11.039062 7.878906 9.753906 7.695312 8.484375 7.21875 C 7.210938 6.75 6.054688 5.9375 5.015625 4.78125 C 4.066406 3.675781 3.285156 2.460938 2.671875 1.140625 C 1.296875 -1.910156 0.484375 -5.097656 0.234375 -8.421875 C 0.078125 -10.421875 0.125 -12.394531 0.375 -14.34375 C 0.625 -16.300781 1.109375 -18.222656 1.828125 -20.109375 C 2.117188 -20.898438 2.457031 -21.664062 2.84375 -22.40625 C 3.082031 -22.84375 3.109375 -23.285156 2.921875 -23.734375 C 2.242188 -25.335938 1.835938 -27.007812 1.703125 -28.75 C 1.597656 -30.4375 1.851562 -32.019531 2.46875 -33.5 C 3.082031 -34.988281 3.945312 -36.253906 5.0625 -37.296875 C 6.175781 -38.347656 7.421875 -39.054688 8.796875 -39.421875 C 12.160156 -40.285156 15.253906 -39.703125 18.078125 -37.671875 C 19.828125 -36.378906 21.21875 -34.769531 22.25 -32.84375 C 23.019531 -31.414062 23.65625 -29.941406 24.15625 -28.421875 C 24.65625 -26.898438 25.066406 -25.34375 25.390625 -23.75 Z M 22.3125 -4.265625 C 22.96875 -6.109375 23.441406 -7.976562 23.734375 -9.875 C 24.023438 -11.769531 24.1875 -13.664062 24.21875 -15.5625 C 24.21875 -19.5 23.679688 -23.304688 22.609375 -26.984375 C 22.265625 -28.117188 21.863281 -29.234375 21.40625 -30.328125 C 20.957031 -31.429688 20.40625 -32.484375 19.75 -33.484375 C 19.144531 -34.421875 18.445312 -35.257812 17.65625 -36 C 16.875 -36.75 15.976562 -37.378906 14.96875 -37.890625 C 13.78125 -38.472656 12.59375 -38.757812 11.40625 -38.75 C 10.21875 -38.75 9.0625 -38.363281 7.9375 -37.59375 C 6.5 -36.613281 5.414062 -35.429688 4.6875 -34.046875 C 3.96875 -32.671875 3.644531 -31.113281 3.71875 -29.375 C 3.875 -24.957031 5.625 -21.273438 8.96875 -18.328125 C 10.03125 -17.390625 11.160156 -16.570312 12.359375 -15.875 C 13.566406 -15.175781 14.851562 -14.640625 16.21875 -14.265625 C 16.28125 -14.242188 16.34375 -14.222656 16.40625 -14.203125 C 16.539062 -14.191406 16.664062 -14.160156 16.78125 -14.109375 C 16.90625 -14.066406 17.015625 -14 17.109375 -13.90625 C 17.160156 -13.851562 17.195312 -13.789062 17.21875 -13.71875 C 17.238281 -13.644531 17.25 -13.578125 17.25 -13.515625 C 17.238281 -13.460938 17.210938 -13.40625 17.171875 -13.34375 C 17.128906 -13.28125 17.082031 -13.234375 17.03125 -13.203125 C 16.757812 -13.054688 16.488281 -13.050781 16.21875 -13.1875 C 15.78125 -13.382812 15.328125 -13.539062 14.859375 -13.65625 C 14.785156 -13.675781 14.71875 -13.691406 14.65625 -13.703125 C 10.519531 -14.816406 7.191406 -17.082031 4.671875 -20.5 C 4.640625 -20.550781 4.609375 -20.601562 4.578125 -20.65625 C 4.523438 -20.757812 4.457031 -20.847656 4.375 -20.921875 C 4.300781 -20.992188 4.203125 -21.015625 4.078125 -20.984375 C 3.984375 -20.960938 3.914062 -20.914062 3.875 -20.84375 C 3.832031 -20.769531 3.800781 -20.6875 3.78125 -20.59375 C 3.769531 -20.53125 3.75 -20.476562 3.71875 -20.4375 C 3.664062 -20.3125 3.625 -20.191406 3.59375 -20.078125 C 3.582031 -20.023438 3.554688 -19.960938 3.515625 -19.890625 C 2.503906 -17.003906 1.984375 -14.109375 1.953125 -11.203125 C 1.921875 -8.304688 2.335938 -5.394531 3.203125 -2.46875 C 3.503906 -1.425781 3.875 -0.421875 4.3125 0.546875 C 4.757812 1.515625 5.296875 2.441406 5.921875 3.328125 C 6.660156 4.367188 7.578125 5.222656 8.671875 5.890625 C 10.253906 6.859375 11.910156 7.019531 13.640625 6.375 C 14.640625 5.976562 15.554688 5.4375 16.390625 4.75 C 17.191406 4.09375 17.914062 3.363281 18.5625 2.5625 C 19.375 1.53125 20.09375 0.441406 20.71875 -0.703125 C 21.34375 -1.847656 21.875 -3.035156 22.3125 -4.265625 Z M 22.3125 -4.265625 "/></g></g></g><g fill="#1b0050" fill-opacity="1"><g transform="translate(216.996205, 214.365454)"><g><path d="M 13.421875 -4.046875 C 13.421875 -4.046875 13.421875 -4.050781 13.421875 -4.0625 C 13.484375 -4.125 13.640625 -4.265625 13.890625 -4.484375 C 14.140625 -4.710938 14.398438 -4.925781 14.671875 -5.125 C 14.953125 -5.332031 15.148438 -5.441406 15.265625 -5.453125 C 15.390625 -5.460938 15.363281 -5.28125 15.1875 -4.90625 C 15.15625 -4.851562 15.109375 -4.789062 15.046875 -4.71875 C 14.992188 -4.65625 14.945312 -4.59375 14.90625 -4.53125 C 14.875 -4.507812 14.851562 -4.488281 14.84375 -4.46875 C 13.71875 -3.257812 12.835938 -2.421875 12.203125 -1.953125 C 11.566406 -1.492188 10.941406 -1.28125 10.328125 -1.3125 C 9.679688 -1.375 9.242188 -1.625 9.015625 -2.0625 C 8.785156 -2.5 8.675781 -3.03125 8.6875 -3.65625 C 8.695312 -4.28125 8.75 -4.910156 8.84375 -5.546875 C 8.945312 -6.210938 8.988281 -6.78125 8.96875 -7.25 C 8.945312 -7.726562 8.785156 -8.003906 8.484375 -8.078125 C 8.191406 -8.109375 7.894531 -7.875 7.59375 -7.375 C 7.300781 -6.882812 7.019531 -6.3125 6.75 -5.65625 C 6.476562 -5.007812 6.25 -4.4375 6.0625 -3.9375 C 5.96875 -3.664062 5.898438 -3.472656 5.859375 -3.359375 C 5.734375 -3.109375 5.546875 -2.941406 5.296875 -2.859375 C 5.054688 -2.773438 4.800781 -2.789062 4.53125 -2.90625 C 4.375 -3.007812 4.273438 -3.144531 4.234375 -3.3125 C 4.191406 -3.707031 4.179688 -4.113281 4.203125 -4.53125 C 4.210938 -4.800781 4.210938 -5.0625 4.203125 -5.3125 C 4.203125 -5.375 4.203125 -5.453125 4.203125 -5.546875 C 4.203125 -5.679688 4.203125 -5.8125 4.203125 -5.9375 C 4.203125 -6.070312 4.1875 -6.1875 4.15625 -6.28125 C 4.132812 -6.382812 4.082031 -6.4375 4 -6.4375 C 3.875 -6.445312 3.722656 -6.296875 3.546875 -5.984375 C 3.367188 -5.671875 3.1875 -5.296875 3 -4.859375 C 2.820312 -4.421875 2.660156 -4.03125 2.515625 -3.6875 C 2.378906 -3.375 2.289062 -3.164062 2.25 -3.0625 C 2.226562 -3.007812 2.203125 -2.957031 2.171875 -2.90625 C 2.023438 -2.613281 1.878906 -2.320312 1.734375 -2.03125 C 1.609375 -1.789062 1.398438 -1.648438 1.109375 -1.609375 C 0.515625 -1.503906 0.191406 -1.742188 0.140625 -2.328125 C 0.0976562 -3.816406 0.0546875 -5.3125 0.015625 -6.8125 C 0.015625 -7.195312 0.253906 -7.332031 0.734375 -7.21875 C 1.222656 -7.113281 1.492188 -6.863281 1.546875 -6.46875 C 1.585938 -5.84375 1.65625 -5.523438 1.75 -5.515625 C 1.851562 -5.515625 2.054688 -5.796875 2.359375 -6.359375 C 2.523438 -6.628906 2.695312 -6.898438 2.875 -7.171875 C 3.070312 -7.535156 3.351562 -7.859375 3.71875 -8.140625 C 4.082031 -8.378906 4.429688 -8.445312 4.765625 -8.34375 C 5.109375 -8.25 5.375 -7.992188 5.5625 -7.578125 C 5.644531 -7.398438 5.722656 -7.304688 5.796875 -7.296875 C 5.878906 -7.285156 5.960938 -7.320312 6.046875 -7.40625 C 6.128906 -7.488281 6.207031 -7.59375 6.28125 -7.71875 C 6.351562 -7.851562 6.425781 -7.96875 6.5 -8.0625 C 6.957031 -8.5625 7.5 -8.90625 8.125 -9.09375 C 8.75 -9.289062 9.3125 -9.285156 9.8125 -9.078125 C 10.320312 -8.867188 10.617188 -8.410156 10.703125 -7.703125 C 10.734375 -6.859375 10.675781 -5.992188 10.53125 -5.109375 C 10.46875 -4.679688 10.421875 -4.28125 10.390625 -3.90625 C 10.359375 -3.070312 10.503906 -2.613281 10.828125 -2.53125 C 11.160156 -2.457031 11.5625 -2.585938 12.03125 -2.921875 C 12.507812 -3.265625 12.972656 -3.640625 13.421875 -4.046875 Z M 13.421875 -4.046875 "/></g></g></g><g fill="#1b0050" fill-opacity="1"><g transform="translate(231.354271, 214.365454)"><g><path d="M 10.5625 -5.296875 C 10.71875 -5.390625 10.875 -5.460938 11.03125 -5.515625 C 11.1875 -5.566406 11.285156 -5.5625 11.328125 -5.5 C 11.378906 -5.4375 11.316406 -5.304688 11.140625 -5.109375 C 10.597656 -4.472656 9.941406 -3.894531 9.171875 -3.375 C 8.410156 -2.851562 7.628906 -2.414062 6.828125 -2.0625 C 6.203125 -1.769531 5.539062 -1.539062 4.84375 -1.375 C 4.144531 -1.207031 3.453125 -1.171875 2.765625 -1.265625 C 2.078125 -1.359375 1.453125 -1.664062 0.890625 -2.1875 C 0.0351562 -2.96875 -0.316406 -3.929688 -0.171875 -5.078125 C -0.046875 -5.984375 0.304688 -6.75 0.890625 -7.375 C 1.472656 -8.007812 2.207031 -8.441406 3.09375 -8.671875 C 3.832031 -8.828125 4.566406 -8.84375 5.296875 -8.71875 C 5.640625 -8.664062 5.945312 -8.550781 6.21875 -8.375 C 6.476562 -8.175781 6.617188 -7.945312 6.640625 -7.6875 C 6.671875 -7.425781 6.570312 -7.175781 6.34375 -6.9375 C 5.875 -6.519531 5.332031 -6.269531 4.71875 -6.1875 C 4.03125 -6.070312 3.34375 -6 2.65625 -5.96875 C 2.3125 -5.96875 2.070312 -5.894531 1.9375 -5.75 C 1.800781 -5.613281 1.722656 -5.378906 1.703125 -5.046875 C 1.597656 -4.140625 1.890625 -3.394531 2.578125 -2.8125 C 3.015625 -2.46875 3.539062 -2.320312 4.15625 -2.375 C 4.769531 -2.425781 5.425781 -2.59375 6.125 -2.875 C 6.820312 -3.15625 7.5 -3.484375 8.15625 -3.859375 C 8.820312 -4.234375 9.421875 -4.59375 9.953125 -4.9375 C 10.179688 -5.082031 10.382812 -5.203125 10.5625 -5.296875 Z M 2.953125 -7.234375 C 2.953125 -7.222656 2.941406 -7.21875 2.921875 -7.21875 C 2.890625 -7.1875 2.847656 -7.148438 2.796875 -7.109375 C 2.753906 -7.078125 2.710938 -7.039062 2.671875 -7 C 2.628906 -6.957031 2.609375 -6.925781 2.609375 -6.90625 C 2.617188 -6.863281 2.75 -6.851562 3 -6.875 C 3.25 -6.894531 3.519531 -6.9375 3.8125 -7 C 4.113281 -7.0625 4.363281 -7.144531 4.5625 -7.25 C 4.769531 -7.363281 4.832031 -7.492188 4.75 -7.640625 C 4.71875 -7.679688 4.671875 -7.71875 4.609375 -7.75 C 4.554688 -7.78125 4.5 -7.804688 4.4375 -7.828125 C 4.144531 -7.828125 3.878906 -7.769531 3.640625 -7.65625 C 3.398438 -7.539062 3.171875 -7.398438 2.953125 -7.234375 Z M 2.953125 -7.234375 "/></g></g></g><g fill="#1b0050" fill-opacity="1"><g transform="translate(241.955802, 214.365454)"><g><path d="M 11.90625 -5.53125 C 12.050781 -5.570312 12.175781 -5.582031 12.28125 -5.5625 C 12.382812 -5.550781 12.441406 -5.515625 12.453125 -5.453125 C 12.460938 -5.398438 12.367188 -5.304688 12.171875 -5.171875 C 12.085938 -5.128906 11.992188 -5.066406 11.890625 -4.984375 C 11.503906 -4.703125 11.054688 -4.394531 10.546875 -4.0625 C 9.992188 -3.6875 9.492188 -3.34375 9.046875 -3.03125 C 8.597656 -2.726562 8.300781 -2.492188 8.15625 -2.328125 C 7.988281 -2.109375 7.882812 -1.863281 7.84375 -1.59375 C 7.8125 -1.320312 7.785156 -1.035156 7.765625 -0.734375 C 7.742188 -0.492188 7.71875 -0.253906 7.6875 -0.015625 C 7.269531 2.578125 6.566406 4.785156 5.578125 6.609375 C 4.585938 8.441406 3.472656 9.898438 2.234375 10.984375 C 1.003906 12.066406 -0.195312 12.773438 -1.375 13.109375 C -2.5625 13.441406 -3.5625 13.394531 -4.375 12.96875 C -5.1875 12.550781 -5.664062 11.757812 -5.8125 10.59375 C -5.882812 9.644531 -5.6875 8.675781 -5.21875 7.6875 C -4.757812 6.695312 -4.140625 5.75 -3.359375 4.84375 C -2.578125 3.9375 -1.75 3.101562 -0.875 2.34375 C -0.0078125 1.59375 0.785156 0.96875 1.515625 0.46875 C 1.722656 0.320312 1.941406 0.175781 2.171875 0.03125 C 3.210938 -0.6875 4.273438 -1.382812 5.359375 -2.0625 C 6.046875 -2.445312 6.367188 -3.007812 6.328125 -3.75 C 6.328125 -3.832031 6.328125 -3.945312 6.328125 -4.09375 C 6.296875 -4.300781 6.28125 -4.523438 6.28125 -4.765625 C 5.875 -4.109375 5.289062 -3.515625 4.53125 -2.984375 C 3.769531 -2.453125 2.992188 -2.066406 2.203125 -1.828125 C 1.410156 -1.597656 0.734375 -1.609375 0.171875 -1.859375 C -0.390625 -2.117188 -0.679688 -2.71875 -0.703125 -3.65625 C -0.679688 -4.132812 -0.539062 -4.578125 -0.28125 -4.984375 C 0.320312 -6.054688 1.164062 -6.898438 2.25 -7.515625 C 2.644531 -7.734375 3.128906 -7.890625 3.703125 -7.984375 C 4.273438 -8.085938 4.820312 -8.082031 5.34375 -7.96875 C 5.875 -7.851562 6.300781 -7.597656 6.625 -7.203125 C 6.707031 -7.328125 6.820312 -7.410156 6.96875 -7.453125 C 7.125 -7.492188 7.269531 -7.515625 7.40625 -7.515625 C 7.4375 -7.515625 7.457031 -7.515625 7.46875 -7.515625 C 8.070312 -7.578125 8.351562 -7.300781 8.3125 -6.6875 C 8.300781 -6.25 8.285156 -5.816406 8.265625 -5.390625 C 8.253906 -5.066406 8.238281 -4.753906 8.21875 -4.453125 C 8.238281 -4.085938 8.441406 -3.96875 8.828125 -4.09375 C 9.210938 -4.21875 9.675781 -4.4375 10.21875 -4.75 C 10.84375 -5.113281 11.40625 -5.375 11.90625 -5.53125 Z M 4.875 -4.9375 C 5.550781 -5.613281 5.921875 -6.132812 5.984375 -6.5 C 5.816406 -6.789062 5.5625 -6.96875 5.21875 -7.03125 C 4.882812 -7.09375 4.539062 -7.085938 4.1875 -7.015625 C 3.84375 -6.941406 3.550781 -6.832031 3.3125 -6.6875 C 2.644531 -6.269531 2.15625 -5.765625 1.84375 -5.171875 C 1.53125 -4.578125 1.414062 -4.070312 1.5 -3.65625 C 1.582031 -3.238281 1.894531 -3.09375 2.4375 -3.21875 C 2.976562 -3.351562 3.789062 -3.925781 4.875 -4.9375 Z M 5.78125 -0.125 C 5.78125 -0.15625 5.789062 -0.175781 5.8125 -0.1875 C 5.832031 -0.28125 5.847656 -0.398438 5.859375 -0.546875 C 5.878906 -0.691406 5.875 -0.8125 5.84375 -0.90625 C 5.820312 -1 5.765625 -1.015625 5.671875 -0.953125 C 4.992188 -0.484375 4.285156 0.03125 3.546875 0.59375 C 3.109375 0.914062 2.695312 1.210938 2.3125 1.484375 C 1.769531 1.878906 1.132812 2.398438 0.40625 3.046875 C -0.3125 3.691406 -1.015625 4.410156 -1.703125 5.203125 C -2.398438 5.992188 -2.972656 6.804688 -3.421875 7.640625 C -3.867188 8.484375 -4.09375 9.289062 -4.09375 10.0625 C -4.039062 11.15625 -3.734375 11.8125 -3.171875 12.03125 C -2.609375 12.257812 -1.898438 12.125 -1.046875 11.625 C -0.203125 11.125 0.675781 10.316406 1.59375 9.203125 C 2.507812 8.097656 3.34375 6.75 4.09375 5.15625 C 4.851562 3.570312 5.414062 1.8125 5.78125 -0.125 Z M 5.78125 -0.125 "/></g></g></g><g fill="#1b0050" fill-opacity="1"><g transform="translate(253.553965, 214.365454)"><g><path d="M 12.390625 -5.625 C 12.191406 -5.019531 11.796875 -4.316406 11.203125 -3.515625 C 10.609375 -2.722656 9.863281 -2.210938 8.96875 -1.984375 C 8.082031 -1.765625 7.3125 -1.796875 6.65625 -2.078125 C 6.007812 -2.367188 5.65625 -3.144531 5.59375 -4.40625 C 4.851562 -2.96875 4.144531 -2.046875 3.46875 -1.640625 C 2.800781 -1.242188 2.109375 -1.09375 1.390625 -1.1875 C 0.578125 -1.320312 0.0234375 -1.640625 -0.265625 -2.140625 C -0.554688 -2.648438 -0.65625 -3.234375 -0.5625 -3.890625 C -0.46875 -4.554688 -0.265625 -5.191406 0.046875 -5.796875 C 0.285156 -6.242188 0.617188 -6.660156 1.046875 -7.046875 C 1.472656 -7.441406 1.921875 -7.75 2.390625 -7.96875 C 2.960938 -8.257812 3.539062 -8.394531 4.125 -8.375 C 4.707031 -8.363281 5.332031 -8.171875 6 -7.796875 C 6.019531 -7.785156 6.03125 -7.800781 6.03125 -7.84375 C 6.03125 -7.90625 6.046875 -7.984375 6.078125 -8.078125 C 6.109375 -8.179688 6.164062 -8.265625 6.25 -8.328125 C 6.46875 -8.484375 6.722656 -8.5625 7.015625 -8.5625 C 7.316406 -8.5625 7.550781 -8.414062 7.71875 -8.125 C 7.738281 -7.726562 7.695312 -7.234375 7.59375 -6.640625 C 7.351562 -5.328125 7.351562 -4.378906 7.59375 -3.796875 C 7.832031 -3.222656 8.253906 -2.957031 8.859375 -3 C 9.472656 -3.039062 10.265625 -3.640625 11.234375 -4.796875 C 12.210938 -5.960938 12.597656 -6.238281 12.390625 -5.625 Z M 1.609375 -2.546875 C 1.941406 -2.304688 2.328125 -2.335938 2.765625 -2.640625 C 3.203125 -2.941406 3.617188 -3.375 4.015625 -3.9375 C 4.421875 -4.5 4.757812 -5.0625 5.03125 -5.625 C 5.300781 -6.1875 5.453125 -6.601562 5.484375 -6.875 C 4.671875 -7.3125 3.972656 -7.382812 3.390625 -7.09375 C 2.804688 -6.8125 2.335938 -6.34375 1.984375 -5.6875 C 1.640625 -5.039062 1.429688 -4.40625 1.359375 -3.78125 C 1.296875 -3.164062 1.378906 -2.753906 1.609375 -2.546875 Z M 1.609375 -2.546875 "/></g></g></g></svg>